<?xml version="1.0" encoding="UTF-8"?>
<svg id="Layer_1" xmlns="http://www.w3.org/2000/svg" version="1.1" viewBox="0 0 140.8 36">
  <!-- Generator: Adobe Illustrator 30.5.0, SVG Export Plug-In . SVG Version: 2.1.3 Build 41)  -->
  <defs>
    <style>
      .st0 {
        fill: #fff;
      }

      .st1 {
        fill: #e8e8ef;
      }

      .st2 {
        fill: #4ade80;
      }
    </style>
  </defs>
  <path class="st0" d="M19.28399,25.64259c-3.8,0-7.6-1.2-7.6-3.4v-4.7h1.7v4.7c0,.5,2.1,1.7,5.9,1.7s6-1.2,6-1.7v-4.7h1.7v4.7c0,2.2-3.8,3.4-7.7,3.4Z"/>
  <g>
    <path class="st2" d="M8.28399,30.84219H3.18399c-.6,0-1.1-.5-1.1-1.1V5.94219c0-.6.5-1.1,1.1-1.1h5.1c.6,0,1.1.5,1.1,1.1s-.5,1.1-1.1,1.1h-4v21.7h4c.6,0,1.1.5,1.1,1.1s-.5,1.1-1.1,1.1v-.1Z"/>
    <path class="st2" d="M35.48398,30.84219h-5.1c-.6,0-1.1-.5-1.1-1.1s.5-1.1,1.1-1.1h4V7.04219h-4c-.6,0-1.1-.5-1.1-1.1s.5-1.1,1.1-1.1h5.1c.6,0,1.1.5,1.1,1.1v23.8c0,.6-.5,1.1-1.1,1.1Z"/>
    <path class="st2" d="M19.28399,16.94219c-3.8,0-7.6-1.2-7.6-3.4s3.8-3.4,7.6-3.4,7.7,1.2,7.7,3.4-3.8,3.4-7.7,3.4ZM19.28399,11.84219c-3.9,0-5.9,1.2-5.9,1.7s2.1,1.7,5.9,1.7,6-1.2,6-1.7-2.1-1.7-6-1.7Z"/>
    <path class="st2" d="M19.28399,21.64219c-3.8,0-7.6-1.2-7.6-3.4v-4.7h1.7v4.7c0,.5,2.1,1.7,5.9,1.7s6-1.2,6-1.7v-4.7h1.7v4.7c0,2.2-3.8,3.4-7.7,3.4Z"/>
  </g>
  <g>
    <path class="st1" d="M43.91182,23.73984v-9.39844c-.50781-.00781-.88281-.12305-1.125-.3457s-.36328-.50977-.36328-.86133c0-.35938.12305-.65039.36914-.87305s.6582-.33398,1.23633-.33398l5.02734.01172c.78125,0,1.54492.14453,2.29102.43359s1.3457.65625,1.79883,1.10156c.34375.33594.70117.79688,1.07227,1.38281s.65039,1.16797.83789,1.74609.28125,1.28516.28125,2.12109v1.14844c0,1.01562-.17188,1.91602-.51562,2.70117s-.79492,1.42578-1.35352,1.92188-1.08398.86133-1.57617,1.0957c-.78125.36719-1.79297.55078-3.03516.55078h-4.82812c-.57812,0-.99023-.11133-1.23633-.33398s-.36914-.51367-.36914-.87305c0-.35156.12305-.64062.36914-.86719s.61914-.33594,1.11914-.32812ZM46.31416,23.73984h2.55469c.95312,0,1.67188-.13672,2.15625-.41016.63281-.35938,1.10938-.81641,1.42969-1.37109s.48047-1.27344.48047-2.15625v-1.13672c0-.75781-.14453-1.42188-.43359-1.99219-.45312-.89062-.96289-1.50195-1.5293-1.83398s-1.27539-.49805-2.12695-.49805h-2.53125v9.39844Z"/>
    <path class="st1" d="M58.27901,23.73984v-9.39844h-.375c-.57812,0-.99023-.11133-1.23633-.33398s-.36914-.51367-.36914-.87305.12305-.65039.36914-.87305.6582-.33398,1.23633-.33398h6.02344c1.4375,0,2.59375.40039,3.46875,1.20117s1.3125,1.75195,1.3125,2.85352c0,.52344-.10156,1.01562-.30469,1.47656s-.51172.88672-.92578,1.27734c.75781.45312,1.32617.98242,1.70508,1.58789s.56836,1.29102.56836,2.05664c0,.60938-.13672,1.17578-.41016,1.69922-.20312.39844-.45312.71484-.75.94922-.39844.32812-.88672.5957-1.46484.80273s-1.30078.31055-2.16797.31055h-7.05469c-.57812,0-.99023-.11133-1.23633-.33398s-.36914-.51367-.36914-.87305c0-.35156.125-.63867.375-.86133s.66016-.33398,1.23047-.33398h.375ZM60.68135,17.83359h2.63672c.94531,0,1.73047-.23828,2.35547-.71484.42188-.32031.63281-.71875.63281-1.19531,0-.42188-.19922-.79102-.59766-1.10742s-1.03125-.47461-1.89844-.47461h-3.12891v3.49219ZM60.68135,23.73984h4.14844c.97656,0,1.66406-.14453,2.0625-.43359.30469-.21875.45703-.53125.45703-.9375,0-.48438-.30078-.96094-.90234-1.42969s-1.46484-.70312-2.58984-.70312h-3.17578v3.50391Z"/>
    <path class="st2" d="M75.43574,20.22422v3.51562h2.46094c.57812,0,.99023.11133,1.23633.33398s.36914.51367.36914.87305c0,.35156-.12305.63867-.36914.86133s-.6582.33398-1.23633.33398h-5.23828c-.57812,0-.99023-.11133-1.23633-.33398s-.36914-.51367-.36914-.87305c0-.35156.125-.63867.375-.86133s.66016-.33398,1.23047-.33398h.375v-9.39844h-.375c-.57812,0-.99023-.11133-1.23633-.33398s-.36914-.51367-.36914-.87305.12305-.65039.36914-.87305.6582-.33398,1.23633-.33398l11.30859.01172v3.66797c0,.57031-.11133.97852-.33398,1.22461s-.51367.36914-.87305.36914c-.35156,0-.63867-.12109-.86133-.36328s-.33398-.65234-.33398-1.23047v-1.26562h-6.12891v3.48047h2.10938c0-.625.05859-1.02734.17578-1.20703.24219-.38281.58594-.57422,1.03125-.57422.35156,0,.63867.12305.86133.36914s.33398.6582.33398,1.23633v2.76562c0,.57812-.11133.99023-.33398,1.23633s-.51367.36914-.87305.36914c-.4375,0-.77734-.19141-1.01953-.57422-.11719-.17969-.17578-.58594-.17578-1.21875h-2.10938Z"/>
    <path class="st2" d="M97.2209,21.02109c0,.92188-.25586,1.81445-.76758,2.67773s-1.27344,1.55078-2.28516,2.0625-2.06836.76758-3.16992.76758c-1.09375,0-2.14062-.25195-3.14062-.75586s-1.76172-1.18945-2.28516-2.05664-.78516-1.77344-.78516-2.71875c0-.96094.26562-1.9043.79688-2.83008s1.29492-1.6543,2.29102-2.18555,2.03711-.79688,3.12305-.79688c1.09375,0,2.14648.27148,3.1582.81445s1.77539,1.27344,2.29102,2.19141.77344,1.86133.77344,2.83008ZM94.81856,21.03281c0-.77344-.27734-1.48438-.83203-2.13281-.75781-.875-1.75391-1.3125-2.98828-1.3125-1.08594,0-1.99219.34766-2.71875,1.04297s-1.08984,1.5-1.08984,2.41406c0,.75.36719,1.45117,1.10156,2.10352s1.63672.97852,2.70703.97852c1.07812,0,1.98438-.32617,2.71875-.97852s1.10156-1.35742,1.10156-2.11523Z"/>
    <path class="st2" d="M104.38106,15.50156v1.5c1.00781-.72656,1.80273-1.21094,2.38477-1.45312s1.12695-.36328,1.63477-.36328c.78125,0,1.53906.28906,2.27344.86719.5.39062.75.78906.75,1.19531,0,.34375-.11914.63477-.35742.87305s-.52539.35742-.86133.35742c-.29688,0-.60938-.14844-.9375-.44531s-.62109-.44531-.87891-.44531c-.33594,0-.83789.21094-1.50586.63281s-1.50195,1.05469-2.50195,1.89844v3.62109h3.42188c.57812,0,.99023.11133,1.23633.33398s.36914.51367.36914.87305c0,.35156-.12305.63867-.36914.86133s-.6582.33398-1.23633.33398h-7.25391c-.57812,0-.99023-.11133-1.23633-.33398s-.36914-.51367-.36914-.87305c0-.35156.12305-.63867.36914-.86133s.6582-.33398,1.23633-.33398h1.42969v-5.83594h-.86719c-.57812,0-.99023-.11133-1.23633-.33398s-.36914-.51367-.36914-.87305c0-.35156.12305-.63867.36914-.86133s.6582-.33398,1.23633-.33398h3.26953Z"/>
    <path class="st2" d="M121.42012,16.21641v-.71484h2.8125c.57812,0,.99023.11133,1.23633.33398s.36914.51367.36914.87305c0,.35156-.12305.63867-.36914.86133s-.6582.33398-1.23633.33398h-.41016v8.74219c0,.84375-.17773,1.58008-.5332,2.20898s-.90039,1.16992-1.63477,1.62305-1.5625.67969-2.48438.67969h-2.71875c-.57812,0-.99023-.11133-1.23633-.33398s-.36914-.50977-.36914-.86133c0-.35938.12305-.65039.36914-.87305s.6582-.33398,1.23633-.33398h2.64844c.73438,0,1.30469-.19922,1.71094-.59766s.60938-.90234.60938-1.51172v-1.17188c-.53125.34375-1.07227.60156-1.62305.77344s-1.11523.25781-1.69336.25781c-1.63281,0-3-.54492-4.10156-1.63477s-1.65234-2.43555-1.65234-4.03711c0-1.60938.55078-2.95898,1.65234-4.04883s2.46875-1.63477,4.10156-1.63477c.60938,0,1.18945.08789,1.74023.26367s1.07617.44336,1.57617.80273ZM121.4084,20.82187c0-.88281-.32617-1.64844-.97852-2.29688s-1.43555-.97266-2.34961-.97266-1.69727.32422-2.34961.97266-.97852,1.41406-.97852,2.29688c0,.89062.32617,1.6582.97852,2.30273s1.43555.9668,2.34961.9668,1.69727-.32227,2.34961-.9668.97852-1.41211.97852-2.30273Z"/>
    <path class="st2" d="M138.7043,22.04062h-9.85547c.25.625.69336,1.12891,1.33008,1.51172s1.49805.57422,2.58398.57422c.89062,0,2.07422-.19141,3.55078-.57422.60938-.15625,1.03125-.23438,1.26562-.23438.32031,0,.58984.11328.80859.33984s.32812.51172.32812.85547c0,.3125-.11719.57812-.35156.79688-.3125.28906-1.07422.56445-2.28516.82617s-2.375.39258-3.49219.39258c-1.92188,0-3.45898-.54297-4.61133-1.62891s-1.72852-2.42188-1.72852-4.00781c0-1.6875.62305-3.06055,1.86914-4.11914s2.68164-1.58789,4.30664-1.58789c.97656,0,1.87305.17188,2.68945.51562s1.42383.71484,1.82227,1.11328c.5625.57812,1.02734,1.29297,1.39453,2.14453.25.59375.375,1.28125.375,2.0625v1.01953ZM136.04414,19.63828c-.36719-.6875-.84766-1.20117-1.44141-1.54102s-1.30078-.50977-2.12109-.50977c-.8125,0-1.51562.16992-2.10938.50977s-1.07812.85352-1.45312,1.54102h7.125Z"/>
  </g>
</svg>