<?xml version="1.0" encoding="UTF-8"?>
<svg id="Layer_1" xmlns="http://www.w3.org/2000/svg" version="1.1" viewBox="0 0 140.8 36">
  <!-- Generator: Adobe Illustrator 30.5.0, SVG Export Plug-In . SVG Version: 2.1.3 Build 41)  -->
  <defs>
    <style>
      .st0 {
        fill: #e8e8ef;
      }

      .st1 {
        fill: #4ade80;
      }
    </style>
  </defs>
  <path class="st0" d="M19.3,25.6c-3.8,0-7.6-1.2-7.6-3.4v-4.7h1.7v4.7c0,.5,2.1,1.7,5.9,1.7s6-1.2,6-1.7v-4.7h1.7v4.7c0,2.2-3.8,3.4-7.7,3.4Z"/>
  <g>
    <path class="st1" d="M8.3,30.8H3.2c-.6,0-1.1-.5-1.1-1.1V5.9c0-.6.5-1.1,1.1-1.1h5.1c.6,0,1.1.5,1.1,1.1s-.5,1.1-1.1,1.1h-4v21.7h4c.6,0,1.1.5,1.1,1.1s-.5,1.1-1.1,1.1h0Z"/>
    <path class="st1" d="M35.5,30.8h-5.1c-.6,0-1.1-.5-1.1-1.1s.5-1.1,1.1-1.1h4V7h-4c-.6,0-1.1-.5-1.1-1.1s.5-1.1,1.1-1.1h5.1c.6,0,1.1.5,1.1,1.1v23.8c0,.6-.5,1.1-1.1,1.1Z"/>
    <path class="st1" d="M19.3,16.9c-3.8,0-7.6-1.2-7.6-3.4s3.8-3.4,7.6-3.4,7.7,1.2,7.7,3.4-3.8,3.4-7.7,3.4ZM19.3,11.8c-3.9,0-5.9,1.2-5.9,1.7s2.1,1.7,5.9,1.7,6-1.2,6-1.7-2.1-1.7-6-1.7Z"/>
    <path class="st1" d="M19.3,21.6c-3.8,0-7.6-1.2-7.6-3.4v-4.7h1.7v4.7c0,.5,2.1,1.7,5.9,1.7s6-1.2,6-1.7v-4.7h1.7v4.7c0,2.2-3.8,3.4-7.7,3.4Z"/>
  </g>
  <g>
    <path class="st0" d="M43.9,23.7v-9.4c-.5,0-.9-.1-1.1-.3s-.4-.5-.4-.9.1-.7.4-.9.7-.3,1.2-.3h5c.8,0,1.5.2,2.3.4s1.3.7,1.8,1.1c.3.3.7.8,1.1,1.4s.7,1.2.8,1.7.3,1.3.3,2.1v1.1c0,1-.2,1.9-.5,2.7s-.8,1.4-1.4,1.9-1.1.9-1.6,1.1c-.8.4-1.8.6-3,.6h-4.8c-.6,0-1-.1-1.2-.3s-.4-.5-.4-.9.1-.6.4-.9.6-.3,1.1-.3ZM46.3,23.7h2.6c1,0,1.7-.1,2.2-.4.6-.4,1.1-.8,1.4-1.4s.5-1.3.5-2.2v-1.1c0-.8-.1-1.4-.4-2-.5-.9-1-1.5-1.5-1.8s-1.3-.5-2.1-.5h-2.5v9.4Z"/>
    <path class="st0" d="M58.3,23.7v-9.4h-.4c-.6,0-1-.1-1.2-.3s-.4-.5-.4-.9.1-.7.4-.9.7-.3,1.2-.3h6c1.4,0,2.6.4,3.5,1.2s1.3,1.8,1.3,2.9-.1,1-.3,1.5-.5.9-.9,1.3c.8.5,1.3,1,1.7,1.6s.6,1.3.6,2.1-.1,1.2-.4,1.7c-.2.4-.5.7-.8.9-.4.3-.9.6-1.5.8s-1.3.3-2.2.3h-7.1c-.6,0-1-.1-1.2-.3s-.4-.5-.4-.9.1-.6.4-.9.7-.3,1.2-.3h.4ZM60.7,17.8h2.6c.9,0,1.7-.2,2.4-.7.4-.3.6-.7.6-1.2s-.2-.8-.6-1.1-1-.5-1.9-.5h-3.1v3.5ZM60.7,23.7h4.1c1,0,1.7-.1,2.1-.4.3-.2.5-.5.5-.9s-.3-1-.9-1.4-1.5-.7-2.6-.7h-3.2v3.5Z"/>
    <path class="st1" d="M75.4,20.2v3.5h2.5c.6,0,1,.1,1.2.3s.4.5.4.9-.1.6-.4.9-.7.3-1.2.3h-5.2c-.6,0-1-.1-1.2-.3s-.4-.5-.4-.9.1-.6.4-.9.7-.3,1.2-.3h.4v-9.4h-.4c-.6,0-1-.1-1.2-.3s-.4-.5-.4-.9.1-.7.4-.9.7-.3,1.2-.3h11.3v3.7c0,.6-.1,1-.3,1.2s-.5.4-.9.4-.6-.1-.9-.4-.3-.7-.3-1.2v-1.3h-6.1v3.5h2.1c0-.6,0-1,.2-1.2.2-.4.6-.6,1-.6s.6.1.9.4.3.7.3,1.2v2.8c0,.6-.1,1-.3,1.2s-.5.4-.9.4-.8-.2-1-.6c-.1-.2-.2-.6-.2-1.2h-2.1Z"/>
    <path class="st1" d="M97.2,21c0,.9-.3,1.8-.8,2.7s-1.3,1.6-2.3,2.1-2.1.8-3.2.8-2.1-.3-3.1-.8-1.8-1.2-2.3-2.1-.8-1.8-.8-2.7.3-1.9.8-2.8,1.3-1.7,2.3-2.2,2-.8,3.1-.8,2.1.3,3.2.8,1.8,1.3,2.3,2.2.8,1.9.8,2.8ZM94.8,21c0-.8-.3-1.5-.8-2.1-.8-.9-1.8-1.3-3-1.3s-2,.3-2.7,1-1.1,1.5-1.1,2.4.4,1.5,1.1,2.1,1.6,1,2.7,1,2-.3,2.7-1,1.1-1.4,1.1-2.1Z"/>
    <path class="st1" d="M104.4,15.5v1.5c1-.7,1.8-1.2,2.4-1.5s1.1-.4,1.6-.4c.8,0,1.5.3,2.3.9.5.4.8.8.8,1.2s-.1.6-.4.9-.5.4-.9.4-.6-.1-.9-.4-.6-.4-.9-.4-.8.2-1.5.6-1.5,1.1-2.5,1.9v3.6h3.4c.6,0,1,.1,1.2.3s.4.5.4.9-.1.6-.4.9-.7.3-1.2.3h-7.3c-.6,0-1-.1-1.2-.3s-.4-.5-.4-.9.1-.6.4-.9.7-.3,1.2-.3h1.4v-5.8h-.9c-.6,0-1-.1-1.2-.3s-.4-.5-.4-.9.1-.6.4-.9.7-.3,1.2-.3h3.3Z"/>
    <path class="st1" d="M121.4,16.2v-.7h2.8c.6,0,1,.1,1.2.3s.4.5.4.9-.1.6-.4.9-.7.3-1.2.3h-.4v8.7c0,.8-.2,1.6-.5,2.2s-.9,1.2-1.6,1.6-1.6.7-2.5.7h-2.7c-.6,0-1-.1-1.2-.3s-.4-.5-.4-.9.1-.7.4-.9.7-.3,1.2-.3h2.6c.7,0,1.3-.2,1.7-.6s.6-.9.6-1.5v-1.2c-.5.3-1.1.6-1.6.8s-1.1.3-1.7.3c-1.6,0-3-.5-4.1-1.6s-1.7-2.4-1.7-4,.6-3,1.7-4,2.5-1.6,4.1-1.6,1.2,0,1.7.3,1.1.4,1.6.8ZM121.4,20.8c0-.9-.3-1.6-1-2.3s-1.4-1-2.3-1-1.7.3-2.3,1-1,1.4-1,2.3.3,1.7,1,2.3,1.4,1,2.3,1,1.7-.3,2.3-1,1-1.4,1-2.3Z"/>
    <path class="st1" d="M138.7,22h-9.9c.2.6.7,1.1,1.3,1.5s1.5.6,2.6.6,2.1-.2,3.6-.6c.6-.2,1-.2,1.3-.2s.6.1.8.3.3.5.3.9-.1.6-.4.8c-.3.3-1.1.6-2.3.8s-2.4.4-3.5.4c-1.9,0-3.5-.5-4.6-1.6s-1.7-2.4-1.7-4,.6-3.1,1.9-4.1,2.7-1.6,4.3-1.6,1.9.2,2.7.5,1.4.7,1.8,1.1c.6.6,1,1.3,1.4,2.1.2.6.4,1.3.4,2.1v1ZM136,19.6c-.4-.7-.8-1.2-1.4-1.5s-1.3-.5-2.1-.5-1.5.2-2.1.5-1.1.9-1.5,1.5h7.1Z"/>
  </g>
</svg>